<?xml version="1.0" encoding="UTF-8" standalone="no"?>
<svg width="24px" height="24px" viewBox="0 0 24 24" version="1.1" xmlns="http://www.w3.org/2000/svg" xmlns:xlink="http://www.w3.org/1999/xlink">
    <!-- Generator: sketchtool 42 (36781) - http://www.bohemiancoding.com/sketch -->
    <title>75F228EE-5921-4BB8-89A0-7F3C5835A4E3</title>
    <desc>Created with sketchtool.</desc>
    <defs></defs>
    <g id="Symbols" stroke="none" stroke-width="1" fill="none" fill-rule="evenodd">
        <g id="Icons/home1" fill="#929292">
            <g id="Icons/home" transform="translate(2.000000, 2.000000)">
                <path d="M10,2 C10,1.44771525 10.4556644,1 10.9953976,1 L19.0046024,1 C19.5543453,1 20,1.44386482 20,2 C20,2.55228475 19.5443356,3 19.0046024,3 L10.9953976,3 C10.4456547,3 10,2.55613518 10,2 Z M0.251124855,6.54114635 C-0.103876939,6.11807168 -0.0446168078,5.48389578 0.372106643,5.13422328 L4.97292339,1.27367964 C5.39474158,0.919732156 6.0220036,0.972821205 6.3794804,1.39884547 C6.73448219,1.82192013 6.67522206,2.45609604 6.25849861,2.80576853 L1.65768186,6.66631217 C1.23586367,7.02025966 0.608601657,6.96717061 0.251124855,6.54114635 Z M10,10 C10,9.44771525 10.4556644,9 10.9953976,9 L19.0046024,9 C19.5543453,9 20,9.44386482 20,10 C20,10.5522847 19.5443356,11 19.0046024,11 L10.9953976,11 C10.4456547,11 10,10.5561352 10,10 Z M-1.95399252e-14,18 C-1.95399252e-14,17.4477153 0.455305576,17 0.99180311,17 L19.0081969,17 C19.5559546,17 20,17.4438648 20,18 C20,18.5522847 19.5446944,19 19.0081969,19 L0.99180311,19 C0.444045377,19 -1.95399252e-14,18.5561352 -1.95399252e-14,18 Z" id="Combined-Shape"></path>
                <rect id="Rectangle-2" transform="translate(3.297019, 8.030036) scale(-1, 1) translate(-3.297019, -8.030036) " x="-0.702980816" y="7.03003555" width="8" height="2" rx="1"></rect>
            </g>
        </g>
    </g>
</svg>